<svg id="Layer_1" data-name="Layer 1" xmlns="http://www.w3.org/2000/svg" xmlns:xlink="http://www.w3.org/1999/xlink" viewBox="0 0 494.06 132.52"><defs><style>.cls-1{fill:#0054ca;}.cls-2{fill:url(#linear-gradient);}.cls-3{fill:url(#linear-gradient-2);}.cls-4{fill:url(#linear-gradient-3);}.cls-5{fill:url(#linear-gradient-4);}.cls-6{fill:url(#linear-gradient-5);}.cls-7{fill:url(#linear-gradient-6);}.cls-8{fill:url(#linear-gradient-7);}.cls-9{fill:url(#linear-gradient-8);}.cls-10{fill:url(#linear-gradient-9);}.cls-11{fill:url(#linear-gradient-10);}.cls-12{fill:url(#linear-gradient-11);}.cls-13{fill:url(#linear-gradient-12);}.cls-14{fill:url(#linear-gradient-13);}.cls-15{fill:url(#linear-gradient-14);}.cls-16{fill:url(#linear-gradient-15);}.cls-17{fill:url(#linear-gradient-16);}.cls-18{fill:url(#linear-gradient-17);}.cls-19{fill:url(#linear-gradient-18);}.cls-20{fill:url(#linear-gradient-19);}.cls-21{fill:url(#linear-gradient-20);}.cls-22{fill:url(#linear-gradient-21);}.cls-23{fill:url(#linear-gradient-22);}.cls-24{fill:url(#linear-gradient-23);}</style><linearGradient id="linear-gradient" x1="328.53" y1="327.67" x2="328.53" y2="375.67" gradientUnits="userSpaceOnUse"><stop offset="0" stop-color="#62c0ee"/><stop offset="1" stop-color="#0054ca"/></linearGradient><linearGradient id="linear-gradient-2" x1="347.39" y1="327.67" x2="347.39" y2="375.67" xlink:href="#linear-gradient"/><linearGradient id="linear-gradient-3" x1="328.66" y1="327.67" x2="328.66" y2="375.67" xlink:href="#linear-gradient"/><linearGradient id="linear-gradient-4" x1="329.73" y1="327.67" x2="329.73" y2="375.67" xlink:href="#linear-gradient"/><linearGradient id="linear-gradient-5" x1="327.23" y1="327.67" x2="327.23" y2="375.67" xlink:href="#linear-gradient"/><linearGradient id="linear-gradient-6" x1="369.31" y1="327.67" x2="369.31" y2="375.67" xlink:href="#linear-gradient"/><linearGradient id="linear-gradient-7" x1="330.01" y1="327.67" x2="330.01" y2="375.67" xlink:href="#linear-gradient"/><linearGradient id="linear-gradient-8" x1="327.73" y1="327.67" x2="327.73" y2="375.67" xlink:href="#linear-gradient"/><linearGradient id="linear-gradient-9" x1="387.39" y1="327.67" x2="387.39" y2="375.67" xlink:href="#linear-gradient"/><linearGradient id="linear-gradient-10" x1="366.11" y1="327.67" x2="366.11" y2="375.67" xlink:href="#linear-gradient"/><linearGradient id="linear-gradient-11" x1="385.04" y1="327.67" x2="385.04" y2="375.67" xlink:href="#linear-gradient"/><linearGradient id="linear-gradient-12" x1="380.54" y1="327.67" x2="380.54" y2="375.67" xlink:href="#linear-gradient"/><linearGradient id="linear-gradient-13" x1="397.99" y1="327.67" x2="397.99" y2="375.67" xlink:href="#linear-gradient"/><linearGradient id="linear-gradient-14" x1="329.73" y1="327.67" x2="329.73" y2="375.67" xlink:href="#linear-gradient"/><linearGradient id="linear-gradient-15" x1="395.14" y1="327.67" x2="395.14" y2="375.67" xlink:href="#linear-gradient"/><linearGradient id="linear-gradient-16" x1="362.45" y1="327.67" x2="362.45" y2="375.67" xlink:href="#linear-gradient"/><linearGradient id="linear-gradient-17" x1="375.58" y1="327.67" x2="375.58" y2="375.67" xlink:href="#linear-gradient"/><linearGradient id="linear-gradient-18" x1="391.15" y1="327.67" x2="391.15" y2="375.67" xlink:href="#linear-gradient"/><linearGradient id="linear-gradient-19" x1="403.7" y1="327.67" x2="403.7" y2="375.67" xlink:href="#linear-gradient"/><linearGradient id="linear-gradient-20" x1="358.63" y1="327.67" x2="358.63" y2="375.67" xlink:href="#linear-gradient"/><linearGradient id="linear-gradient-21" x1="401.49" y1="327.67" x2="401.49" y2="375.67" xlink:href="#linear-gradient"/><linearGradient id="linear-gradient-22" x1="328.02" y1="327.67" x2="328.02" y2="375.67" gradientTransform="translate(9.13 -9.84) rotate(1.74)" xlink:href="#linear-gradient"/><linearGradient id="linear-gradient-23" x1="349.69" y1="336" x2="349.69" y2="404.68" xlink:href="#linear-gradient"/></defs><path class="cls-1" d="M436,346.18a18.4,18.4,0,0,1,13.5,5.37,19,19,0,0,1-.1,26.71,19.64,19.64,0,0,1-27.09.1,17.9,17.9,0,0,1-5.46-13.3,18.1,18.1,0,0,1,5.56-13.4A18.58,18.58,0,0,1,436,346.18Zm-.11,32a12.52,12.52,0,0,0,9.31-3.8,13.81,13.81,0,0,0,0-18.88,13.24,13.24,0,0,0-18.59,0,13.73,13.73,0,0,0,0,18.88A12.54,12.54,0,0,0,435.91,378.2Z" transform="translate(-292.97 -293.74)"/><path class="cls-1" d="M469.55,356v2h9.13v4.64h-9.13v20.55h-5.73V362.66H458.6V358h5.22v-2.45c0-3,.8-5.3,2.42-6.94a9,9,0,0,1,6.7-2.45,21.62,21.62,0,0,1,3.45.26,8.46,8.46,0,0,1,2.19.57l.62.26-.73,4.39a9.63,9.63,0,0,0-4.07-.73,4.76,4.76,0,0,0-3.57,1.3A5.15,5.15,0,0,0,469.55,356Zm18.52.53V358h9.13v4.64h-9.13v20.55h-5.74V356.35q0-4.91,2.48-7.54a9,9,0,0,1,6.91-2.63,20.13,20.13,0,0,1,3.34.26,7.28,7.28,0,0,1,2.08.57l.58.26L497,351.6a9.66,9.66,0,0,0-4-.67,4.67,4.67,0,0,0-3.65,1.43A6,6,0,0,0,488.07,356.51Z" transform="translate(-292.97 -293.74)"/><path class="cls-1" d="M511.64,367.35c5.57,1.61,8.35,4.33,8.35,8.19a7.35,7.35,0,0,1-2.74,5.87,11.29,11.29,0,0,1-7.54,2.32,16.58,16.58,0,0,1-5.53-.91,14.07,14.07,0,0,1-3.75-1.8l-1.15-.94,2.51-3.75c.24.2.59.48,1.06.83a14.29,14.29,0,0,0,2.79,1.36,11.21,11.21,0,0,0,4.12.83,5.4,5.4,0,0,0,3.37-.94,2.78,2.78,0,0,0,1.22-2.29,3.3,3.3,0,0,0-1.3-2.61,15,15,0,0,0-5.06-2.19,12.45,12.45,0,0,1-5.58-3.08,6.54,6.54,0,0,1-2-4.69,6.84,6.84,0,0,1,2.61-5.4,10.74,10.74,0,0,1,7.19-2.22,15.25,15.25,0,0,1,4.85.78,13.87,13.87,0,0,1,3.45,1.57l1.09.78-2.55,3.81-.89-.7a11,11,0,0,0-2.32-1.15,9.24,9.24,0,0,0-3.47-.71,5.15,5.15,0,0,0-3.15.84,2.44,2.44,0,0,0-1.13,2,3,3,0,0,0,1.18,2.32A11.83,11.83,0,0,0,511.64,367.35Z" transform="translate(-292.97 -293.74)"/><path class="cls-1" d="M525.72,383.21V346.7h5.74v14.13q2.87-4.89,9-4.9a9.8,9.8,0,0,1,7.36,3c1.95,2,2.92,4.87,2.92,8.55v15.7H545V369.34c0-2.72-.6-4.75-1.8-6.11a5.9,5.9,0,0,0-4.61-2,6.93,6.93,0,0,0-5.14,2q-2,2-2,6.16v13.82Z" transform="translate(-292.97 -293.74)"/><path class="cls-1" d="M560.38,360a14.14,14.14,0,0,1,10.25-4,14,14,0,0,1,10.15,3.94,13.18,13.18,0,0,1,4,9.83,13.39,13.39,0,0,1-4.15,10,15,15,0,0,1-20.39.11,13.23,13.23,0,0,1-4-9.86A13.36,13.36,0,0,1,560.38,360Zm4,16a8.78,8.78,0,0,0,12.21,0,9,9,0,0,0,0-12.31,8.75,8.75,0,0,0-12.21,0,9,9,0,0,0,0,12.31Z" transform="translate(-292.97 -293.74)"/><path class="cls-1" d="M590.56,383.21V356.45h5.11l.36,5.64q2.87-6.16,10.49-6.16l-.11,5.84h-1.15a8.68,8.68,0,0,0-6.62,2.48c-1.56,1.65-2.35,4.17-2.35,7.54v11.42Z" transform="translate(-292.97 -293.74)"/><path class="cls-1" d="M636,370.69H614.6a8.35,8.35,0,0,0,2.71,5.79,8.69,8.69,0,0,0,6.1,2.24,10.07,10.07,0,0,0,3-.41,9.74,9.74,0,0,0,2.3-1,14.28,14.28,0,0,0,1.59-1.18,5.22,5.22,0,0,0,.93-1l.32-.42,3.49,3.18c-.1.17-.25.39-.44.65a12.12,12.12,0,0,1-1.36,1.38,14.42,14.42,0,0,1-2.32,1.78,13.89,13.89,0,0,1-3.36,1.41,15.91,15.91,0,0,1-4.46.62,14,14,0,0,1-10.15-3.94,13.17,13.17,0,0,1-4-9.83A13.48,13.48,0,0,1,613,360a13.86,13.86,0,0,1,10.12-4.07,12.67,12.67,0,0,1,9.31,3.84,12.51,12.51,0,0,1,3.83,9.2Zm-13-10.38a8.44,8.44,0,0,0-5.38,1.78,7.85,7.85,0,0,0-2.86,4.69h16a7.49,7.49,0,0,0-2.64-4.67A7.7,7.7,0,0,0,623,360.31Z" transform="translate(-292.97 -293.74)"/><path class="cls-1" d="M681.72,383.21h-25V346.7h6v31.19h19Z" transform="translate(-292.97 -293.74)"/><path class="cls-1" d="M711.45,370.69H690.07a8.35,8.35,0,0,0,2.71,5.79,8.69,8.69,0,0,0,6.1,2.24,10.07,10.07,0,0,0,3-.41,9.74,9.74,0,0,0,2.3-1,14.28,14.28,0,0,0,1.59-1.18,5.71,5.71,0,0,0,.94-1l.31-.42,3.49,3.18c-.1.17-.25.39-.44.65a12.12,12.12,0,0,1-1.36,1.38,14.42,14.42,0,0,1-2.32,1.78,13.89,13.89,0,0,1-3.36,1.41,15.91,15.91,0,0,1-4.46.62,14,14,0,0,1-10.15-3.94,13.17,13.17,0,0,1-4-9.83,13.48,13.48,0,0,1,4.12-10,13.86,13.86,0,0,1,10.12-4.07,12.66,12.66,0,0,1,9.31,3.84,12.51,12.51,0,0,1,3.83,9.2Zm-13-10.38a8.44,8.44,0,0,0-5.38,1.78,7.85,7.85,0,0,0-2.86,4.69h16a7.45,7.45,0,0,0-2.64-4.67A7.7,7.7,0,0,0,698.47,360.31Z" transform="translate(-292.97 -293.74)"/><path class="cls-1" d="M716.25,388.17l2.25-4.23a15.22,15.22,0,0,0,1.35.91,19.13,19.13,0,0,0,3.57,1.44,17,17,0,0,0,5.35.88c3.09,0,5.48-.8,7.15-2.42a9.14,9.14,0,0,0,2.5-6.86v-1q-3.24,4.27-9.29,4.27a13.17,13.17,0,0,1-9.41-3.62,11.78,11.78,0,0,1-3.83-8.89,12,12,0,0,1,3.83-9,13.42,13.42,0,0,1,9.62-3.65,11.34,11.34,0,0,1,9.6,4.54l.47-4h4.75v20.24q0,7.1-3.94,11.24t-11,4.15a23,23,0,0,1-6.78-1,20.45,20.45,0,0,1-4.7-1.93Zm20-25.12a8.66,8.66,0,0,0-6.1-2.27,8.56,8.56,0,0,0-6.08,2.27,7.36,7.36,0,0,0-2.43,5.61,7.25,7.25,0,0,0,2.46,5.55,8.53,8.53,0,0,0,6,2.27,8.62,8.62,0,0,0,6.1-2.27,7.58,7.58,0,0,0,0-11.16Z" transform="translate(-292.97 -293.74)"/><path class="cls-1" d="M753.05,369.54a13.4,13.4,0,0,1,15.36.06v-1.67a6.55,6.55,0,0,0-7-7.2,12,12,0,0,0-3.83.6,8.56,8.56,0,0,0-2.59,1.23l-.78.57-2.45-3.7.43-.4a9.93,9.93,0,0,1,1.3-.85,15.09,15.09,0,0,1,5.15-1.89,19.41,19.41,0,0,1,3.76-.36q5.52,0,8.66,3.16t3.13,8.89v15.23h-4.44l-.52-2.61c-2,2.09-4.9,3.13-8.66,3.13a11.55,11.55,0,0,1-7.58-2.29,7.28,7.28,0,0,1-2.8-5.9A7.49,7.49,0,0,1,753.05,369.54Zm9.05,10.23a8.17,8.17,0,0,0,4.82-1.25,3.78,3.78,0,0,0,1.75-3.19,3.82,3.82,0,0,0-1.75-3.2,8,8,0,0,0-4.82-1.28,7.31,7.31,0,0,0-4.54,1.28,3.89,3.89,0,0,0-1.67,3.2,3.85,3.85,0,0,0,1.67,3.16A7.31,7.31,0,0,0,762.1,379.77Z" transform="translate(-292.97 -293.74)"/><path class="cls-1" d="M781.19,383.21V346.7H787v36.51Z" transform="translate(-292.97 -293.74)"/><path class="cls-2" d="M293,370.41a11.88,11.88,0,0,1,3.61-8.84,9.9,9.9,0,0,1,7.94-2.82,11.62,11.62,0,0,1,7.8,3.71,25.24,25.24,0,0,0,8,6c5.32,2.27,10.34,1.51,15-1.58a51.32,51.32,0,0,0,5.37-4.43,14.34,14.34,0,0,1,19.34.49A13.19,13.19,0,0,1,364,374.09c-.68,6.19-4,10.51-9.85,12.54a13.74,13.74,0,0,1-14.57-3,33.37,33.37,0,0,0-7.12-5.18c-5.5-2.83-10.67-2.22-15.58,1.36a21.3,21.3,0,0,0-3.08,2.6c-4.5,4.86-11.39,4-15.65.28C294.76,379.74,293,375.66,293,370.41Z" transform="translate(-292.97 -293.74)"/><path class="cls-3" d="M382.86,351.85c-.18,4.31-1.37,8.06-5,10.57a10.85,10.85,0,0,1-13.22-1.11c-1.46-1.31-2.79-2.78-4.32-4-7.08-5.64-15.74-5.17-22.68,1.24-2.07,1.9-4.11,3.81-6.85,4.69-7.73,2.49-15.93-.92-18.24-9.05a14.66,14.66,0,0,1,16.11-18.73,13.92,13.92,0,0,1,7.75,3.59c2.53,2.21,5,4.5,7.71,6.47,4.11,3,8.05,3,12.21,0a36.2,36.2,0,0,0,5.68-4.79c4.53-4.87,10.72-4.65,15.48-.86C381.29,343,382.66,347.2,382.86,351.85Z" transform="translate(-292.97 -293.74)"/><path class="cls-4" d="M350.15,340.51a16.07,16.07,0,0,1-10.75-4.4,18.37,18.37,0,0,0-12.56-4.94,18.61,18.61,0,0,0-13.22,5.24,17.46,17.46,0,0,1-7.78,4.62,9.29,9.29,0,0,1-7.06-.84c-2.93-1.66-4-4.38-3.87-7.59.26-7.19,6.75-13.83,13.94-14.29a9.64,9.64,0,0,1,6.65,2.05,38.26,38.26,0,0,0,6.55,4.07c3.91,1.83,7.71.83,11.24-1.26a50.31,50.31,0,0,0,5.33-3.72c3.9-3.06,8.69-3.25,13.4-2.59a9.5,9.5,0,0,1,3.34,1.2c4.95,2.85,8.5,9.23,6.47,14.86-1.47,4.08-5.35,6.65-9.51,7.39A14.59,14.59,0,0,1,350.15,340.51Z" transform="translate(-292.97 -293.74)"/><path class="cls-5" d="M345.72,419a25,25,0,0,1-8.41-2.38,25.76,25.76,0,0,0-13.67-2.2c-2.39.34-4.3,1.54-6.58,2.11-5.94,1.49-13.3-2.49-16.37-7.53a7.81,7.81,0,0,1-1.43-4.2,4,4,0,0,1,2.43-3.82,8.05,8.05,0,0,1,5.29-.68,19,19,0,0,1,8.38,3.82c1.89,1.52,3.83,3,5.79,4.43,5.26,3.89,9.13,3.76,14.58.35,2.32-1.45,4.47-3.22,6.9-4.45a15.35,15.35,0,0,1,13.2-.7c5.59,2.29,5.08,7.17,2.55,10.3-2.35,2.92-6.12,4.41-9.75,4.85A16.93,16.93,0,0,1,345.72,419Z" transform="translate(-292.97 -293.74)"/><path class="cls-6" d="M328.23,406.29c-4.94-.27-9.45-1.87-12.43-6.37-4.55-6.87-1.36-14.52,6.22-16.86,6.52-2,15.05,1.85,17.8,7.9a10.65,10.65,0,0,1-7.24,14.73c-.81.18-1.62.36-2.43.49C329.59,406.26,329,406.25,328.23,406.29Z" transform="translate(-292.97 -293.74)"/><path class="cls-7" d="M372.57,381.25c5,.15,8.29,3.33,8.07,8.3-.28,6.28-3.64,10.59-9.18,13.27a12.31,12.31,0,0,1-7.38,1.09c-3.9-.61-5.88-4.15-6.08-7.07a12.56,12.56,0,0,1,2.75-8.51,16.34,16.34,0,0,1,8.66-6.45C370.44,381.59,371.51,381.46,372.57,381.25Z" transform="translate(-292.97 -293.74)"/><path class="cls-8" d="M348.37,305.85a22.16,22.16,0,0,1-9.26-2.4,16.89,16.89,0,0,0-8.42-1.78c-5,.06-9.73,1-14,3.83-3.07,2-7.79,3.8-11.5,2.92a2.71,2.71,0,0,1-1.52-.84,2.27,2.27,0,0,1-.13-2.27c1.09-2.38,3.65-3.82,5.89-4.93a21.93,21.93,0,0,1,8.55-2.46,18.1,18.1,0,0,1,5.49.75,18.7,18.7,0,0,0,11.27-.78c5.91-2.14,13.74-3.14,19.28.6a8.41,8.41,0,0,1,2.2,2.13c.94,1.39.56,2.67-.86,3.56A13.4,13.4,0,0,1,348.37,305.85Z" transform="translate(-292.97 -293.74)"/><path class="cls-9" d="M324.83,320a11.52,11.52,0,0,1-6.33-2,5.94,5.94,0,0,1-1.92-8.51,11.91,11.91,0,0,1,6.63-5.08c3.85-1.32,7.75-1.79,11.69-.32a7.47,7.47,0,0,1,4.39,3.7,6.16,6.16,0,0,1-1.43,7.26C334.58,318.36,330.53,319.9,324.83,320Z" transform="translate(-292.97 -293.74)"/><path class="cls-10" d="M379.22,373.46a17.71,17.71,0,0,1,4.21-11.16c1.74-2,3.85-3.37,6.68-2.63s4.47,3.16,5.05,5.92c1.3,6.13-.43,14.32-6.49,17.38-4.61,2.33-8.36-2-9.17-6.26A16,16,0,0,1,379.22,373.46Z" transform="translate(-292.97 -293.74)"/><path class="cls-11" d="M361.64,305.86c6.5.75,11.71,3.49,14.55,9.7,1.08,2.37.52,4.9-1.32,6a9,9,0,0,1-3.34,1.08,12.7,12.7,0,0,1-7.29-1.68,18.65,18.65,0,0,1-7.41-6.42,8.78,8.78,0,0,1-1.27-3.27,4.43,4.43,0,0,1,4.38-5.36C360.5,305.83,361.07,305.86,361.64,305.86Z" transform="translate(-292.97 -293.74)"/><path class="cls-12" d="M393.43,338.09c.05,2.22-.63,4.27-2.75,5.42a5.11,5.11,0,0,1-5.45-.57,18.47,18.47,0,0,1-8.53-13.56,8,8,0,0,1,0-2c.47-4,3.6-5.8,7.28-4.1C389.46,325.78,393.29,332.12,393.43,338.09Z" transform="translate(-292.97 -293.74)"/><path class="cls-13" d="M375.33,412.14c-2,0-3.11-.95-2.94-2.76a9.6,9.6,0,0,1,1.07-3.68,22.06,22.06,0,0,1,8.87-8.86,9.78,9.78,0,0,1,3.83-1.06,2.16,2.16,0,0,1,2.53,2.58,11.59,11.59,0,0,1-1.15,4,19.35,19.35,0,0,1-10.18,9.33,7,7,0,0,1-1.17.4A5,5,0,0,1,375.33,412.14Z" transform="translate(-292.97 -293.74)"/><path class="cls-14" d="M402.69,355.51c0,2.32-.15,5.54-1.92,7.27a2.58,2.58,0,0,1-1.54.77,2.71,2.71,0,0,1-2.15-1,16,16,0,0,1-3.22-6.72,21.93,21.93,0,0,1-.41-7.7,12.26,12.26,0,0,1,1.17-3.82c1-2,2.87-2.38,4.37-.7a12.21,12.21,0,0,1,2.58,4.31A24.94,24.94,0,0,1,402.69,355.51Z" transform="translate(-292.97 -293.74)"/><path class="cls-15" d="M332.09,426.25a19.44,19.44,0,0,1-9.2-1.93,10.77,10.77,0,0,1-2.61-1.88c-1.57-1.53-1.34-3.26.58-4.31a9.27,9.27,0,0,1,3.19-1.15c4.87-.64,9.58-.14,13.87,2.52,1.19.74,2.44,1.57,2.27,3.21a3.34,3.34,0,0,1-2.81,2.77A22.38,22.38,0,0,1,332.09,426.25Z" transform="translate(-292.97 -293.74)"/><path class="cls-16" d="M389.56,391.66a9.64,9.64,0,0,1,.25-2.2,24.73,24.73,0,0,1,6-11.6,4.88,4.88,0,0,1,1.93-1.45c1.66-.55,2.61.78,2.9,2.21a3.61,3.61,0,0,1,.08,1.08c-.7,5.22-2.46,11.52-7,14.69-1.76,1.21-3.45.5-4-1.62A5.11,5.11,0,0,1,389.56,391.66Z" transform="translate(-292.97 -293.74)"/><path class="cls-17" d="M356.64,423.87h-1a3.84,3.84,0,0,1-1.9-.42c-1.57-1-.42-3.21.54-4.18a20.6,20.6,0,0,1,7.06-4.44c2.78-1.12,5.61-2,8.62-1.26a3.19,3.19,0,0,1,1.19.49c2.43,1.76-2,5-3.3,5.95A19.7,19.7,0,0,1,356.64,423.87Z" transform="translate(-292.97 -293.74)"/><path class="cls-18" d="M382.64,310.77a1.84,1.84,0,0,1-2.13,2.77c-.35-.13-.7-.28-1-.43a30.63,30.63,0,0,1-10-7.4c-.79-.86-1.67-1.83-1.14-3.24a.26.26,0,0,1,.1-.13,2.94,2.94,0,0,1,2.75,0,25,25,0,0,1,11.43,8.38Z" transform="translate(-292.97 -293.74)"/><path class="cls-19" d="M385.48,318a1.72,1.72,0,0,1,.11-1.1,1.58,1.58,0,0,1,2.23-.64,11.89,11.89,0,0,1,1.54,1.09,24.6,24.6,0,0,1,5.17,6.36c.71,1.26,3.81,6.19,1.48,7.07-1.37.52-2.75-1.09-3.66-1.9a23.68,23.68,0,0,1-3-3.3,23.44,23.44,0,0,1-3.23-5.86A10.21,10.21,0,0,1,385.48,318Z" transform="translate(-292.97 -293.74)"/><path class="cls-20" d="M404.56,359.65c2.19,0,1.19,8.53,1,9.79a35.72,35.72,0,0,1-.88,4.83,1.48,1.48,0,0,1-2.87-.11,25.8,25.8,0,0,1,.3-10C402.39,362.91,402.82,359.69,404.56,359.65Z" transform="translate(-292.97 -293.74)"/><path class="cls-21" d="M365.14,300.25a9.78,9.78,0,0,1-3.12-.34,24.79,24.79,0,0,1-3.48-.83,27.89,27.89,0,0,1-6.28-2.82c-.44-.26-.92-.6-1-1.11-.3-1.73,2.32-.91,3.06-.76,1.3.28,2.6.56,3.88.93,2.34.67,5.45,1.53,7.35,3.12a1.15,1.15,0,0,1,.47,1C366,299.93,365.62,300.16,365.14,300.25Z" transform="translate(-292.97 -293.74)"/><path class="cls-22" d="M400,333.26c2.27,2.88,4.69,10.53,4.44,13.94a.76.76,0,0,1-1.34.44c-2.27-2.63-4.75-10.42-4.46-14A.76.76,0,0,1,400,333.26Z" transform="translate(-292.97 -293.74)"/><ellipse class="cls-23" cx="328.02" cy="295.31" rx="7.13" ry="1.56" transform="translate(-301.8 -283.63) rotate(-1.74)"/><path class="cls-24" d="M349,385.54a11.86,11.86,0,0,1-8.13-3.39,35.71,35.71,0,0,0-7.55-5.48,15.87,15.87,0,0,0-17.68,1.52,23.26,23.26,0,0,0-3.37,2.86,8.21,8.21,0,0,1-6.16,2.72,10.32,10.32,0,0,1-6.7-2.59c-3-2.62-4.47-6.15-4.47-10.77a9.94,9.94,0,0,1,3-7.42,7.77,7.77,0,0,1,5.69-2.27l.71,0a9.65,9.65,0,0,1,6.49,3.11,26.86,26.86,0,0,0,8.68,6.4,17.45,17.45,0,0,0,6.92,1.48,18.05,18.05,0,0,0,10-3.22,39.06,39.06,0,0,0,4.59-3.7l1-.89a12.31,12.31,0,0,1,8.15-3,11.76,11.76,0,0,1,8.45,3.41,11.22,11.22,0,0,1,3.3,9.56c-.6,5.47-3.46,9.12-8.51,10.87A13.59,13.59,0,0,1,349,385.54Zm27.65-24.77c2.68-1.83,4-4.59,4.17-8.92-.22-4.74-1.7-8-4.66-10.39a10.12,10.12,0,0,0-6.28-2.38,8.8,8.8,0,0,0-6.49,3,38.58,38.58,0,0,1-6,5.07,12.68,12.68,0,0,1-7.29,2.58,12.31,12.31,0,0,1-7.26-2.62c-2.23-1.62-4.3-3.45-6.3-5.22l-1.54-1.36a12.11,12.11,0,0,0-6.67-3.12,15.93,15.93,0,0,0-1.68-.1,12.62,12.62,0,0,0-12.27,16.3,11.3,11.3,0,0,0,11.31,8.4,14.54,14.54,0,0,0,4.39-.7c2.29-.74,4.11-2.43,6.1-4.26a19.88,19.88,0,0,1,13.48-5.69,18.87,18.87,0,0,1,11.8,4.35,37.2,37.2,0,0,1,2.76,2.5c.54.53,1.09,1.06,1.65,1.56a9.24,9.24,0,0,0,6.13,2.36A8.13,8.13,0,0,0,376.69,360.77Zm-71.33-21.68a15.31,15.31,0,0,0,6.88-4.13,20.56,20.56,0,0,1,14.61-5.79,20.27,20.27,0,0,1,13.89,5.46,14.11,14.11,0,0,0,9.39,3.88h0a12.46,12.46,0,0,0,1.84-.17c3.81-.68,6.87-3,8-6.1,1.71-4.72-1.57-10.14-5.59-12.44a7.3,7.3,0,0,0-2.62-1,26.43,26.43,0,0,0-3.78-.29,12.59,12.59,0,0,0-8.1,2.48,52.72,52.72,0,0,1-5.55,3.85,15.59,15.59,0,0,1-8,2.51,11.94,11.94,0,0,1-5.07-1.15,39.91,39.91,0,0,1-6.91-4.28,7.57,7.57,0,0,0-4.75-1.67,5.33,5.33,0,0,0-.56,0c-6.21.4-11.85,6.17-12.07,12.36-.11,2.78.8,4.62,2.86,5.79a6.79,6.79,0,0,0,3.45.91A9.12,9.12,0,0,0,305.36,339.09Zm43,77.79a12.79,12.79,0,0,0,8.44-4.12,5.23,5.23,0,0,0,1.27-4.33,4.57,4.57,0,0,0-3-2.87,13.41,13.41,0,0,0-5-1,14.43,14.43,0,0,0-6.51,1.66,34.37,34.37,0,0,0-4.1,2.59c-.85.59-1.73,1.2-2.64,1.77a20.91,20.91,0,0,1-4.63,2.24,32.9,32.9,0,0,1,5.94,1.94,22.86,22.86,0,0,0,7.74,2.22l.82,0A14.58,14.58,0,0,0,348.39,416.88Zm-31.82-2.33a21.09,21.09,0,0,0,2.53-.87,18.08,18.08,0,0,1,4.25-1.28l.35,0a19.56,19.56,0,0,1-3.74-2.23c-2.33-1.72-4.19-3.15-5.85-4.48a16.9,16.9,0,0,0-7.52-3.42,6.51,6.51,0,0,0-1.3-.13,6.1,6.1,0,0,0-2.72.64,2,2,0,0,0-1.31,2,5.93,5.93,0,0,0,1.14,3.13,15.26,15.26,0,0,0,12,6.9A8.85,8.85,0,0,0,316.57,414.55Zm12.3-10.29a8.07,8.07,0,0,0,1-.06c.69-.1,1.38-.26,2.11-.42l.19,0a8.42,8.42,0,0,0,5.69-4.51,8.59,8.59,0,0,0,.17-7.44c-1.88-4.15-7.16-7.27-12.27-7.27a10.55,10.55,0,0,0-3.12.45,9.59,9.59,0,0,0-6.45,5.72,9,9,0,0,0,1.31,8.12c2.27,3.44,5.7,5.18,10.76,5.48ZM370.59,401c5.18-2.51,7.82-6.29,8.05-11.55a5.85,5.85,0,0,0-1.39-4.36,6.47,6.47,0,0,0-4.53-1.85l-.82.14a19.69,19.69,0,0,0-1.95.4c-2.9.83-5.31,2.64-7.6,5.72a10.61,10.61,0,0,0-2.36,7.19c.12,1.58,1.17,4.72,4.39,5.22a11.28,11.28,0,0,0,1.72.14A10.19,10.19,0,0,0,370.59,401Zm-55-97.19a23.54,23.54,0,0,1,7.36-3.23,18.13,18.13,0,0,0-4.37-.7h-.48a20.07,20.07,0,0,0-7.78,2.26c-2.11,1.05-4.17,2.25-5,4a1.23,1.23,0,0,0-.06.22,2,2,0,0,0,.36.11,7,7,0,0,0,1.63.18A16.45,16.45,0,0,0,315.58,303.83Zm38.71-1.35a1.3,1.3,0,0,0,.43-.37.74.74,0,0,0-.17-.36,6.36,6.36,0,0,0-1.66-1.6,14.09,14.09,0,0,0-8-2.17,28.36,28.36,0,0,0-9.43,1.79l-.54.19a16.56,16.56,0,0,1,5.18,1.73,20.09,20.09,0,0,0,8.35,2.16C351.16,303.77,352.86,303.37,354.29,302.48ZM324.81,318c5.15-.06,8.73-1.41,11.62-4.36a4.19,4.19,0,0,0,1.05-5,5.48,5.48,0,0,0-3.28-2.7,12.44,12.44,0,0,0-4.38-.78,18.39,18.39,0,0,0-6,1.12,9.89,9.89,0,0,0-5.57,4.23,3.94,3.94,0,0,0,1.29,5.78,10,10,0,0,0,4.9,1.71Zm63,63.22c5.08-2.57,6.59-9.74,5.43-15.19-.29-1.37-1.14-3.76-3.59-4.4a4.06,4.06,0,0,0-1-.13c-1.22,0-2.38.68-3.66,2.14a15.6,15.6,0,0,0-3.72,9.88,14.89,14.89,0,0,0,.24,2.85c.49,2.54,2.41,5.28,4.66,5.28A3.66,3.66,0,0,0,387.77,381.19ZM371.3,320.62a7.13,7.13,0,0,0,2.57-.83c.93-.53,1.14-2,.5-3.4-2.31-5.05-6.39-7.77-12.85-8.53h-.95a4.18,4.18,0,0,0-.5,0,2.85,2.85,0,0,0-2.11,1,2.58,2.58,0,0,0-.43,2.07,6.87,6.87,0,0,0,1,2.52,16.67,16.67,0,0,0,6.64,5.72,11.69,11.69,0,0,0,5.29,1.53A8.27,8.27,0,0,0,371.3,320.62Zm18.43,21.13c.75-.41,1.75-1.23,1.7-3.61-.13-5.33-3.68-10.94-8.26-13.06a4.53,4.53,0,0,0-1.85-.46c-2,0-2.5,2.09-2.61,3a6.6,6.6,0,0,0,0,1.52,16.54,16.54,0,0,0,7.65,12.15,4.1,4.1,0,0,0,2.19.8A2.58,2.58,0,0,0,389.73,341.75Zm-14.35,68.38a1.63,1.63,0,0,0,.36,0,5.63,5.63,0,0,0,.87-.3,17.45,17.45,0,0,0,9.15-8.39,9.58,9.58,0,0,0,.94-3.27,3,3,0,0,0,0-.34.86.86,0,0,0-.26,0h-.12a7.8,7.8,0,0,0-3,.82,20.18,20.18,0,0,0-8.07,8.08,7.72,7.72,0,0,0-.83,2.9,1.5,1.5,0,0,0,0,.41,1.76,1.76,0,0,0,.88.16Zm23.67-48.57a.68.68,0,0,0,.32-.21c1.25-1.22,1.3-4.24,1.32-5.86a22.86,22.86,0,0,0-1-6.94,10.19,10.19,0,0,0-2.17-3.57c-.3-.33-.51-.4-.55-.4s-.28.14-.52.64a10.15,10.15,0,0,0-1,3.17,19.67,19.67,0,0,0,.37,7,13.76,13.76,0,0,0,2.73,5.84,1,1,0,0,0,.51.33Zm-67,62.69a20.26,20.26,0,0,0,4.82-.7c1.26-.34,1.32-.85,1.34-1.05s-.05-.51-1.33-1.3a17,17,0,0,0-9.17-2.47,26.94,26.94,0,0,0-3.39.23,7.41,7.41,0,0,0-2.48.92c-.44.24-.57.45-.58.49s.06.28.42.63a8.58,8.58,0,0,0,2.12,1.53,17.35,17.35,0,0,0,7.73,1.73ZM392,393a1.1,1.1,0,0,0,.54-.24c3.23-2.23,5.32-6.71,6.19-13.3a1.28,1.28,0,0,0-.05-.43,1.7,1.7,0,0,0-.28-.71h0a3.25,3.25,0,0,0-1.1.91,22.57,22.57,0,0,0-5.5,10.65,8.74,8.74,0,0,0-.21,1.75,2.73,2.73,0,0,0,.08.67,1.2,1.2,0,0,0,.34.69Zm-35.82,28.89h.42a17.67,17.67,0,0,0,10.1-3.46l.11-.09a12.19,12.19,0,0,0,3-2.75l-.25-.06a7.08,7.08,0,0,0-1.79-.22,15.4,15.4,0,0,0-5.6,1.4,18.4,18.4,0,0,0-6.39,4,3.16,3.16,0,0,0-.69,1.13,4.07,4.07,0,0,0,.68.06Zm24.48-110.43a23,23,0,0,0-9.58-7,28.53,28.53,0,0,0,9.32,6.84ZM393,325l-.2-.35a22.41,22.41,0,0,0-4.74-5.83l-.22-.18c.05.12.09.23.13.34a21.35,21.35,0,0,0,3,5.35,21,21,0,0,0,2.77,3l.46.42.46.43A22.57,22.57,0,0,0,393,325Zm10.59,44.14a36.34,36.34,0,0,0,.35-3.93,27.11,27.11,0,0,0-.49,5C403.46,370.05,403.55,369.31,403.58,369.14ZM366,299.44a1.15,1.15,0,0,0-.47-1c-1.9-1.59-5-2.45-7.35-3.12-1.28-.37-2.58-.65-3.88-.93-.74-.15-3.36-1-3.06.76.08.51.56.85,1,1.11a27.89,27.89,0,0,0,6.28,2.82,24.79,24.79,0,0,0,3.48.83,9.78,9.78,0,0,0,3.12.34C365.62,300.16,366,299.93,366,299.44Zm32.57,34.22c-.29,3.56,2.19,11.35,4.46,14a.76.76,0,0,0,1.34-.44c.25-3.41-2.17-11.06-4.44-13.94A.76.76,0,0,0,398.59,333.66ZM328,293.75c-3.93.12-7.1.92-7.08,1.78s3.24,1.46,7.17,1.34,7.1-.91,7.08-1.77S331.9,293.64,328,293.75Z" transform="translate(-292.97 -293.74)"/></svg>